<svg version="1.1" id="pole" xmlns="http://www.w3.org/2000/svg" xmlns:xlink="http://www.w3.org/1999/xlink" x="0px" y="0px"
	 viewBox="0 0 117.5 209.6" style="enable-background:new 0 0 117.5 209.6;" xml:space="preserve" width="117.525px" height="209.6px">
<style type="text/css">
	.st0{enable-background:new    ;}
	.st1{fill-rule:evenodd;clip-rule:evenodd;fill:#2F4154;}
	.st2{fill:#044B94;fill-opacity:0;}
	.st3{fill:#818181;}
	.st4{fill:#40464B;}
	.st5{fill:#A1AAB2;}
	.st6{fill:#707D89;}
	.st7{fill:#2D343B;}
	.st8{fill:#0E1218;}
	.st9{fill:#818181;}
        .pole{fill:#2F4154;animation: beat-pole 3s infinite linear;}
	.energy{fill:#549A6A;animation: beat 1.5s infinite linear;}
	.st10{fill:#000;fill-opacity:0;}
	.st11{font-family:'MyriadPro-Regular';}
	.st12{font-size:5.8348px;}
	.st13{fill:#E6E7E8;stroke:#231F20;stroke-width:0.25;stroke-linecap:round;stroke-miterlimit:10;}
	.st14{fill:none;stroke:#231F20;stroke-width:0.25;stroke-linecap:round;stroke-miterlimit:10;}
    #pole{
		cursor: pointer;
	}
	
	#pole:hover .energy{
		fill:#000;
		transition: .8s;		
	}

	@keyframes beat {
		0%{ fill: #549A6A;}		
		50%{ fill: #3D724C;}
		100%{ fill: #72CC8C;}
	}

	@keyframes beat-warning {
		0%{ fill: #FF0000;}		
		50%{ fill: #FD9E01;}
		100%{ fill: #BF3000;}
	}

	@keyframes shake {
		0% { fill: #000;}
		10% { transform: rotate (30deg);}
		20% { transform: rotate (0deg);}
		30% { transform: rotate (-30deg);}
		40% { transform: rotate (0deg);}		
		50% { transform: rotate (100deg);}
	}
		
	@keyframes beat-pole {
		0%{ fill: #2F4154;}		
		50%{ fill: #E4F96E;}
		100%{ fill: #2F4154;}
	}
</style>
<g id="Capa_1_copia_xA0_Image_1_">
	
		<image style="overflow:visible;enable-background:new    ;" width="233" height="774" id="Capa_1_copia_xA0_Image" xlink:href="6C0A4398.png"  transform="matrix(0.262 0 0 0.262 37.0225 3.93)">
	</image>
</g>
<g id="techo_1_" class="st0">
	<g id="techo">
		<g>
			<ellipse class="st1" cx="59.6" cy="3.1" rx="22.3" ry="1.6"/>
		</g>
	</g>
</g>
<g id="base_x5F_izquierda_xA0_Image_1_">
	<g>
		<g>
			<path class="st2" d="M41.4,210.1c-5.5,0-11.1,0-16.6,0c-0.7,0-0.9-0.2-0.9-0.9c0.1-2.9,0.1-5.8,0-8.6c0-0.6,0.1-0.8,0.7-0.8
				c11.2,0,22.3,0,33.5,0c0.6,0,0.7,0.1,0.7,0.7c0,3-0.1,5.9,0,8.9c0,0.8-0.3,0.7-0.8,0.7C52.5,210.1,46.9,210.1,41.4,210.1z"/>
			<path class="st3" d="M39.1,203.6c2,0,4.1,0,6.2-0.1c0.7,0,1.3-0.2,1.4-1c0.1-0.6,0.4-0.8,0.9-0.7c2.8,0.4,5.6,0.7,8.3,1.9
				c0.6,0.2,1.1,0.6,1.6,0.9c1,0.8,0.9,1.7,0,2.5c-0.6,0.6-1.4,0.9-2.2,1.2c-2.6,0.9-5.3,1.5-8.2,1.5c-4.3-0.1-8.5,0-12.8,0
				c-2.7,0-5.3-0.7-7.9-1.7c-0.4-0.1-0.7-0.4-1-0.6c-1.5-1-1.5-2.3,0.1-3.2c1.6-1,3.4-1.5,5.3-1.8c1.6-0.3,3.3-0.5,4.9-0.8
				c1.1-0.2,1.9,0,2,1.3C37.7,204.3,38.4,203.9,39.1,203.6z"/>
			<path class="st4" d="M39.1,203.6c-0.2,1.1-1,0.5-1.5,0.4c-0.6-0.1-0.2-0.6,0-0.9C37.9,203.7,38.6,203.5,39.1,203.6z"/>
			<path class="st5" d="M41.2,201.6c-0.2,0.5-0.6,0.7-1.3,0.6c0.4-0.6,0.9-0.6,1.3-0.7V201.6z"/>
			<path class="st6" d="M41.2,201.6L41.2,201.6c0.1-0.4,0.2-0.6,0.7-0.6C41.7,201.3,41.6,201.6,41.2,201.6z"/>
			<path class="st7" d="M42,204.1c0.9,0,1.8,0,2.6,0c0,0.1,0,0.2,0,0.3c-0.9,0-1.8,0-2.7,0C41.9,204.2,41.9,204.1,42,204.1z"/>
			<path class="st8" d="M42,204.1c0,0.1,0,0.2-0.1,0.3c-0.3,0-0.6,0.1-0.8-0.1c0,0,0-0.2,0.1-0.2C41.5,203.9,41.8,203.8,42,204.1z"
				/>
		</g>
	</g>
</g>
<g id="base_x5F_derecha_xA0_Image_1_">
	<g>
		<g>
			<path class="st2" d="M76.7,201c5.5,0,11.1,0,16.6,0c0.7,0,0.9,0.1,0.9,0.9c-0.1,2.5,0,5,0,7.5c0,0.6,0,0.9-0.8,0.9
				c-11.1,0-22.2,0-33.4,0c-0.7,0-0.7-0.3-0.7-0.8c0-2.6,0.1-5.2,0-7.7c0-0.7,0.2-0.7,0.8-0.7C65.6,201,71.1,201,76.7,201z"/>
			<path class="st3" d="M75.7,209.9c-3.7,0.2-8.2-0.1-12.6-1.6c-0.7-0.3-1.5-0.6-2.1-1c-1.5-1-1.5-2.2,0.1-3.2c1-0.6,2-1,3.1-1.3
				c2.5-0.7,5.1-1.1,7.7-1.3c0.7-0.1,1.2-0.1,1.2,0.9c0,0.7,0.5,0.9,1.2,0.9c2.3,0,4.5,0,6.8,0c0.7,0,1.2-0.2,1.3-1
				c0.1-0.6,0.3-0.8,0.8-0.7c2.9,0.4,5.9,0.8,8.6,2c0.3,0.1,0.6,0.3,0.8,0.4c1.6,1,1.6,2.3,0,3.2c-1.9,1.2-4.1,1.6-6.3,2
				C83,210,79.8,209.9,75.7,209.9z"/>
		</g>
	</g>
</g>
<g id="poles_xA0_Image_1_">
	
		<image style="overflow:visible;enable-background:new    ;" width="206" height="774" id="poles_xA0_Image" xlink:href="6C0A4399.png"  transform="matrix(0.262 0 0 0.262 37.0225 2.62)">
	</image>
</g>
<g id="cable_x5F_izquierdo2_xA0_Image_1_">
	<g>
		<g>
			<path class="st2" d="M8.2,17.3c9.6,0,19.1,0,28.7,0c0.8,0,0.9,0.2,0.9,0.9c0,9.4,0,18.9,0,28.3c0,0.8-0.2,0.9-0.9,0.9
				c-11.2,0-22.4,0-33.5,0c-0.8,0-0.9-0.2-0.9-0.9c0-5.6,0-11.3,0-16.9c1.3-0.7,2.6-0.3,4-0.3c0.7,0.1,0.8,0.6,0.8,1.2
				c0,0.3,0,0.7,0.1,1c0.1,0.2,0.1,0.3,0.3,0.3c0.2,0,0.3-0.2,0.4-0.3c0.1-0.3,0.1-0.5,0.1-0.8c0.1-0.6,0-1.2,0.7-1.4
				c0.7-0.2,1.4-0.1,1.9,0.4c0.5,0.5,0.9,1.1,1.3,1.7c3.1,4.6,6.4,9.1,9.5,13.8c0.6,0.9,1.4,1.3,2.5,1.3c4-0.1,8,0.1,12-0.2
				c0.7-0.1,0.9-0.3,0.8-0.9c0-0.6,0.3-1.4-0.7-1.6c-0.3-0.1-0.7-0.1-1-0.1c-3.3,0-6.6,0-10,0c-1.1,0-1.9-0.4-2.5-1.3
				c-3.4-4.9-6.8-9.8-10.2-14.7c-0.6-0.9-1.3-1.3-2.4-1.3c-2,0-2.7-1.1-1.7-2.9c0.8-1.5,0.8-2.8,0.1-4.2C8.2,18.8,8.1,18,8.2,17.3z"
				/>
			<path class="pole" d="M8.2,17.3c0.5,1.9,1.9,3.6,1,5.6c-0.3,0.8-0.9,1.5-0.8,2.5c0.1,0.6,0.1,1,0.8,0.8c2.2-0.4,3.2,0.8,4.3,2.5
				c3.1,4.8,6.5,9.4,9.8,14.1c0.3,0.5,0.7,0.7,1.3,0.7c3.8-0.1,7.6,0,11.4-0.1c0.9,0,1.4,0.1,1.2,1.2c-0.1,0.3,0,0.6,0,0.9
				c0.1,1.1-0.1,1.7-1.4,1.1c-0.7-0.3-1.5,0.3-2.3,0.2c-3.4,0-6.8-0.1-10.2,0c-0.9,0-1.4-0.4-1.9-1.1c-3.6-5.2-7.2-10.4-10.8-15.6
				c-0.5-0.8-1.3-0.7-2-0.6c-0.6,0.1-0.3,0.8-0.3,1.2c-0.1,0.5,0.1,1-0.1,1.4c-0.2,0.4-0.7,0.2-1.1,0.2c-0.6,0-0.4-0.4-0.4-0.8
				c-0.1-2.1-0.1-2.1-2.2-2.1c-0.7,0-1.5,0-2.2,0c0-1.1,0-2.3,0-3.4c0.8-0.6,1.8-0.3,2.6-0.4c1.5-0.1,1.8-0.6,1-1.7
				c-1-1.5-1.1-3-0.4-4.6c0.3-0.8-0.1-1.8,1-2.3C7.2,17.3,7.7,17.3,8.2,17.3z"/>
			<path class="st2" d="M6.6,17.3c-0.3,0.5-0.9,0.9-0.4,1.6c0.2,0.3-0.1,0.4-0.2,0.7c-0.9,1.6-0.7,3.2,0.6,4.6
				c0.5,0.6,0.3,1.2,0.2,1.8c-0.1,0.5-0.7,0.3-1,0.3c-1.1,0-2.3,0-3.4,0c0-2.8,0-5.5,0-8.3c0-0.6,0.1-0.7,0.7-0.7
				C4.3,17.3,5.5,17.3,6.6,17.3z"/>
		</g>
	</g>
</g>
<g id="cable_x5F_izquierdo1_xA0_Image_1_">
	<g>
		<g>
			<path class="st2" d="M8.5,31.4c9.6,0,19.1,0,28.7,0c0.8,0,0.9,0.2,0.9,0.9c0,9.4,0,18.9,0,28.3c0,0.8-0.2,0.9-0.9,0.9
				c-11.2,0-22.4,0-33.5,0c-0.8,0-0.9-0.2-0.9-0.9c0-5.6,0-11.3,0-16.9c1.3-0.7,2.6-0.3,4-0.3c0.6,0,0.7,0.5,0.8,1
				c0.1,0.4,0,0.8,0.1,1.2C7.7,45.9,7.7,46,7.9,46s0.3-0.2,0.3-0.3c0.1-0.3,0.1-0.5,0.1-0.8c0.1-0.6,0-1.2,0.7-1.4
				c0.7-0.2,1.4-0.1,1.9,0.4c0.5,0.4,0.8,1,1.2,1.5c3.1,4.6,6.4,9.1,9.5,13.8c0.7,1,1.4,1.4,2.6,1.4c3.8-0.1,7.6,0,11.4,0
				c1.3,0,1.4-0.2,1.5-1.4c0-1-0.4-1.3-1.3-1.3c-3.3,0-6.6-0.1-10,0c-1.4,0-2.3-0.5-3.1-1.7c-3.3-4.8-6.7-9.6-10-14.4
				c-0.6-0.9-1.3-1.3-2.4-1.3c-2,0-2.7-1.1-1.7-2.9c0.8-1.5,0.8-2.8,0.1-4.2C8.5,32.9,8.4,32.2,8.5,31.4z"/>
			<path class="pole" d="M8.5,31.4c0.5,1.9,1.9,3.6,1,5.6c-0.3,0.8-0.9,1.5-0.8,2.5c0.1,0.6,0.1,1,0.8,0.8c2.2-0.4,3.2,0.8,4.3,2.5
				c3.1,4.8,6.5,9.4,9.8,14.1c0.3,0.5,0.7,0.7,1.3,0.7c3.8-0.1,7.6,0,11.4-0.1c0.9,0,1.3,0.1,1.3,1.2c-0.1,2.3,0,2.3-2.3,2.3
				c-3.9,0-7.8,0-11.6,0c-0.9,0-1.4-0.3-1.8-1c-3.6-5.2-7.2-10.4-10.8-15.6c-0.6-0.8-1.3-0.8-2-0.7c-0.7,0.2-0.2,0.9-0.3,1.3
				c-0.1,0.5,0.3,1.1-0.3,1.4c-0.6,0.4-1.3-0.1-1.3-0.9c-0.1-2-0.1-2-2.1-2c-0.8,0-1.6,0-2.4,0c0-1.1,0-2.3,0-3.4
				c0.8-0.6,1.8-0.3,2.6-0.4c1.5-0.1,1.8-0.6,1-1.7c-1-1.5-1.1-3-0.4-4.6c0.3-0.8-0.1-1.8,1-2.3C7.4,31.4,7.9,31.4,8.5,31.4z"/>
			<path class="st2" d="M6.9,31.4C6.6,31.9,6,32.4,6.5,33c0.2,0.3-0.1,0.4-0.2,0.7c-0.9,1.5-0.7,3.2,0.6,4.6
				c0.5,0.6,0.3,1.2,0.2,1.8c-0.1,0.5-0.7,0.3-1,0.3c-1.1,0-2.3,0-3.4,0c0-2.8,0-5.5,0-8.3c0-0.6,0.1-0.7,0.7-0.7
				C4.5,31.5,5.7,31.4,6.9,31.4z"/>
			<path class="pole" d="M36.5,46.7c-0.5,0.2-0.9,0.2-1.5,0C35.5,46.5,35.9,46.6,36.5,46.7z"/>
		</g>
	</g>
</g>
<g id="cable_x5F_derecho2_xA0_Image_1_">
	<g>
		<g>
			<path class="st2" d="M112.5,17.8c1,0,2.3-0.4,2.8,0.1c0.5,0.5,0.1,1.8,0.1,2.8c0,8.6,0,17.2,0,25.8c0,0.8-0.2,0.9-0.9,0.9
				c-10.5,0-21,0-31.4,0c-0.8,0-0.9-0.2-0.9-0.9c0-9.2,0-18.5,0-27.8c0-0.8,0.2-0.9,0.9-0.9c9.2,0,18.4,0,27.6,0
				c0.3,0.9,0.2,1.8-0.2,2.6c-0.6,1.2-0.5,2.4,0.2,3.5c0.2,0.3,0.4,0.6,0.5,0.9c0.3,1-0.2,1.8-1.1,1.6c-2.6-0.4-3.7,1.2-4.9,3
				c-2.9,4.4-6,8.7-9,13c-0.7,1-1.4,1.4-2.6,1.4c-3.1-0.1-6.2,0-9.3,0c-1.4,0-1.7,0.3-1.5,1.7c0.1,0.7,0.4,0.9,1,0.9
				c3.9,0,7.9,0.1,11.8,0c0.9,0,1.4-0.7,1.8-1.3c3.4-4.8,6.8-9.6,10.1-14.5c0.7-0.9,1.4-1.5,2.6-1.4c0.8,0.1,1.2,0.4,1.3,1.2
				c0,0.1,0,0.3,0,0.4c0.1,0.5-0.2,1.3,0.5,1.3c0.5,0,0.3-0.8,0.3-1.2c0-1.1,0.4-1.7,1.5-1.6c1,0,1.1-0.6,1.1-1.4
				c0-0.8-0.2-1.2-1.1-1.3c-1.6-0.2-1.9-0.9-1.2-2.3c0.8-1.4,0.8-2.8,0.2-4.2C112.4,19.3,112.2,18.6,112.5,17.8z"/>
			<path class="pole" d="M112.5,17.8c0.3,1.1,0.6,2.2,1,3.2c0.3,1.1,0.2,2.4-0.6,3.3c-0.4,0.5-0.4,1.1-0.3,1.6
				c0.2,0.5,0.8,0.3,1.2,0.2c1.1-0.1,1.6,0.2,1.4,1.4c-0.1,0.3-0.1,0.7,0,1c0.1,0.8-0.2,1.2-1,1c-1.4-0.3-1.9,0.4-1.6,1.7
				c0.1,0.3,0,0.6,0,0.9c0.1,0.6-0.4,0.6-0.8,0.6c-0.4,0-0.8,0.1-0.8-0.5c0-0.3,0.1-0.7,0-1c-0.1-0.5,0.4-1.4-0.4-1.5
				c-0.8-0.1-1.8-0.3-2.5,0.8c-3.5,5.3-7.2,10.5-10.8,15.6c-0.4,0.5-0.8,0.9-1.6,0.9c-4.1-0.1-8.1-0.1-12.2,0c-0.9,0-1-0.3-1-1.1
				c0-2.3,0-2.3,2.3-2.3c3.2,0,6.4,0,9.6,0c0.6,0,0.9-0.1,1.3-0.6c3-4.4,6.1-8.8,9.2-13.2c0.7-0.9,1.3-1.9,1.9-2.9
				c0.3-0.4,0.6-0.7,1.2-0.6c0.7,0.1,1.4,0.1,2.1,0c0.4,0,0.9,0.2,1-0.2c0.1-0.4,0.2-1-0.2-1.5c-1.3-1.5-1.3-3-0.3-4.7
				c0.4-0.6-0.2-1.4,0.3-2C111.3,17.8,111.9,17.8,112.5,17.8z"/>
		</g>
	</g>
</g>
<g id="cable_x5F_derecho1_xA0_Image_1_">
	<g>
		<g>
			<path class="st2" d="M112.5,31.9c1,0,2.3-0.4,2.8,0.1c0.5,0.5,0.1,1.8,0.1,2.8c0,8.6,0,17.2,0,25.8c0,0.8-0.2,0.9-0.9,0.9
				c-10.5,0-21,0-31.4,0c-0.8,0-0.9-0.2-0.9-0.9c0-9.2,0-18.5,0-27.8c0-0.8,0.2-0.9,0.9-0.9c9.2,0,18.4,0,27.6,0
				c0.3,0.9,0.2,1.8-0.2,2.6c-0.6,1.2-0.5,2.4,0.2,3.5c0.2,0.3,0.4,0.6,0.5,0.9c0.3,1-0.2,1.8-1.1,1.6c-2.6-0.4-3.7,1.2-4.9,3
				c-2.9,4.4-6,8.7-9,13c-0.7,1-1.4,1.4-2.6,1.4c-3.1-0.1-6.2,0-9.3,0c-1.4,0-1.7,0.3-1.5,1.7c0.1,0.7,0.3,0.9,1,1
				c3.9,0,7.9,0,11.8,0c0.9,0,1.4-0.7,1.8-1.3c3.4-4.8,6.7-9.7,10.1-14.5c0.6-0.9,1.3-1.5,2.4-1.4c0.9,0.1,1.4,0.4,1.4,1.3
				c0,0.3,0,0.6,0.1,0.9c0.1,0.3,0,0.7,0.4,0.7c0.3,0,0.3-0.4,0.4-0.6c0-0.3,0-0.5,0-0.8c0-0.9,0.4-1.5,1.4-1.5c1,0,1.2-0.5,1.2-1.4
				c0-0.9-0.3-1.3-1.2-1.3c-1.4-0.1-1.8-0.8-1.2-2c0.8-1.5,0.9-3,0.3-4.6C112.4,33.4,112.3,32.6,112.5,31.9z"/>
			<path class="pole" d="M112.5,31.9c0.5,2.3,2,4.5,0.2,6.9c-0.7,0.9-0.2,1.5,1,1.5c0.5,0,1.3-0.3,1.4,0.3c0.2,1,0.1,2-0.1,3
				c-0.1,0.4-0.9,0.2-1.3,0.1c-0.9-0.1-1.3,0.2-1.2,1.1c0.1,0.4,0,0.9,0,1.3c0.1,0.7-0.3,0.7-0.9,0.8c-0.6,0-0.8-0.2-0.7-0.8
				c0-0.3,0.1-0.5,0-0.8c-0.1-0.5,0.4-1.4-0.4-1.5c-0.9-0.1-1.8-0.4-2.6,0.8c-3.5,5.3-7.2,10.4-10.8,15.6c-0.4,0.6-0.9,0.8-1.7,0.8
				c-4.1-0.1-8.1-0.1-12.2,0c-0.8,0-1-0.2-1-1c0-2.4,0-2.4,2.4-2.4c3.1,0,6.3,0,9.4,0c0.7,0,1.1-0.2,1.4-0.8
				c3.5-5.1,7.1-10.2,10.6-15.4c0.6-0.9,1.2-1.3,2.2-1.2c0.5,0.1,1,0.1,1.4,0c0.4,0,0.9,0.2,1-0.2c0.1-0.4,0.2-1-0.2-1.5
				c-1.3-1.5-1.4-3-0.3-4.7c0.4-0.6-0.2-1.4,0.3-2C111.3,31.9,111.9,31.9,112.5,31.9z"/>
		</g>
	</g>
</g>
<g id="color_xA0_Image_1_">
	<g>
		<g>
			<path id="e" class="energy" d="M46.2,201.7c0-65.7,0-131.4,0-197c8.9,0,17.8,0,26.7,0c0.3,0.4,0.1,0.9,0.1,1.4c0,64.7,0,129.3,0,194
				c0,1.8,0,1.8-1.9,2c-3.1,0.4-6.2,0.8-9,2.1c-0.5,0.2-1.1,0.5-1.5,0.8c-1.4,1-2.8,1-4.3,0.2c-2.5-1.5-5.2-2.3-8.1-2.6
				C47.4,202.6,46.7,202.3,46.2,201.7z"/>
			<path class="st10" d="M46.2,201.7c2.1,0.3,4.3,0.2,6.3,0.9c1.6,0.5,3.5,1,4.7,2.5c0.6,0.9,1.6,0.8,2.1,0.2c1.8-2.3,4.5-2.4,6.9-3
				c1.9-0.5,3.9-0.9,5.9-0.8c0.7,0.1,0.9-0.3,0.8-0.8c0-0.4,0-0.8,0-1.2c0-64.9,0-129.8,0-194.7c0.1,0.1,0.3-0.1,0.3,0.1
				c0,0.3,0,0.7,0,1c0,66.3,0,132.6,0,198.9c0,1-0.2,1.2-1.2,1.2c-8.3-0.1-16.5-0.1-24.8,0c-0.8,0-1-0.2-1-0.9
				C46.3,203.9,46.2,202.8,46.2,201.7z"/>
		</g>
	</g>
</g>
<g id="color_x5F_der_xA0_Image_1_">
	<g>
		<g>
			<path class="st2" d="M110.9,29.6c0.4-0.1,0.3,0.2,0.3,0.4c0,9.2,0,18.3,0,27.5c0,0.6-0.1,0.7-0.7,0.7c-9.2,0-18.5,0-27.8,0
				c-0.6,0-0.7-0.1-0.7-0.7c0-9.1,0-18.2,0-27.3c0-0.9,0.5-0.7,0.9-0.7c8.5,0,17,0,25.5,0c0.2,0.5-0.2,0.8-0.4,1.2
				c-3.5,4.8-6.7,9.8-10.2,14.6c-1,1.4-2.1,2-3.9,1.9c-3.3-0.1-6.6,0-9.9-0.1c-1,0-1.5,0.3-1.5,1.4c0.1,2.4,0.1,4.8,0,7.2
				c0,1.1,0.4,1.5,1.5,1.4c3.1-0.1,6.2-0.1,9.3,0c1,0,1.7-0.4,2.3-1.2c3.2-4.7,6.6-9.4,9.7-14.1c0.9-1.4,1.9-2.2,3.6-2
				c0.4,0.1,1,0.2,1.3-0.3s-0.2-0.9-0.4-1.3c-0.6-0.8-0.9-1.7-0.6-2.6C109.9,33.7,110.3,31.6,110.9,29.6z"/>
			<path id="e_1_" class="energy" d="M110.9,29.6c-0.1,1-0.2,2.1-0.4,3.1c-0.2,1-0.8,2-0.8,3c-0.1,0.9,0,1.7,0.7,2.4
				c0.2,0.2,0.4,0.4,0.5,0.6c0.5,1,0.1,1.7-0.9,1.5c-2.1-0.3-3.3,0.6-4.5,2.4c-3,4.7-6.4,9.2-9.6,13.9c-0.6,0.8-1.2,1.1-2.1,1.1
				c-3.4-0.1-6.7-0.1-10.1,0c-0.9,0-1.3-0.2-1.3-1.2c0.1-2.8,0.1-5.7,0-8.5c0-0.9,0.2-1.1,1.1-1.1c3.8,0.1,7.6,0,11.4,0.1
				c1.2,0,1.9-0.4,2.5-1.3c2.7-3.9,5.4-7.7,8.1-11.6c1-1.5,2.1-3,3.2-4.5C109.3,29.6,110.1,29.6,110.9,29.6z"/>
		</g>
	</g>
</g>
<g id="color_x5F_izq_xA0_Image_1_">
	<g>
		<g>
			<path class="st2" d="M10.6,29.6c8.9,0,17.9,0,26.8,0c0.7,0,1,0,1,0.9c-0.1,8.9-0.1,17.9,0,26.8c0,0.7-0.2,0.9-0.9,0.9
				c-9.4,0-18.8,0-28.1,0c-0.9,0-0.9-0.3-0.9-1c0-8.9,0-17.8,0-26.8C8.9,30.3,9,30.7,9,30.9c0.1,1.2,0.4,2.4,0.9,3.5
				c0.4,1,0.3,2.1-0.3,3c-0.2,0.4-0.4,0.8-0.4,1.2C9,39.5,9.4,40,10.2,40c1.6-0.2,2.5,0.8,3.4,2c3.2,4.7,6.5,9.4,9.8,14.1
				c0.6,0.9,1.3,1.3,2.4,1.2c3.3-0.1,6.6-0.1,10,0c1.1,0,1.5-0.4,1.5-1.4c-0.1-2.4-0.1-4.8,0-7.2c0-1.1-0.5-1.4-1.5-1.4
				c-3.8,0-7.6,0-11.4,0c-1.5,0-2.5-0.4-3.2-1.9c-0.8-1.7-1.9-3.1-3-4.6c-2.4-3.2-4.6-6.7-7-10C10.7,30.5,10.4,30.1,10.6,29.6z"/>
			<path id="e_2_" class="energy" d="M10.6,29.6c3.4,4.8,6.9,9.4,10,14.4c1.5,2.4,3.1,3.1,5.7,3c3.4-0.2,6.8,0,10.2-0.1
				c0.8,0,1.1,0.2,1.1,1c-0.1,2.9-0.1,5.8,0,8.8c0,0.8-0.2,0.9-1,0.9c-3.9,0-7.9,0-11.8,0c-0.6,0-0.9-0.3-1.2-0.7
				c-3.6-5.1-7.2-10.2-10.7-15.3c-0.6-0.9-1.3-1.4-2.5-1.3C8.8,40.4,8,39.4,8.9,38c1-1.7,1.1-3.1,0.1-4.8c-0.3-0.5-0.2-1.3-0.2-2
				c0-0.3,0.1-0.6-0.3-0.8c0-0.4-0.2-1,0.7-0.8C9.6,29.7,10.1,29.6,10.6,29.6z"/>
		</g>
	</g>
</g>
<path class="st9" d="M99.1,103.2h9c5.2,0,9.4-4.2,9.4-9.4V80.6c0-5.2-4.2-9.4-9.4-9.4h-9c-5.2,0-9.4,4.2-9.4,9.4v13.1
	C89.7,98.9,94,103.2,99.1,103.2z"/>
<text transform="matrix(0.9671 0 0 1 94.916 78.002)" class="st11 st12">Sensor</text>

<path id="sensor" class="st13" d="M109.9,86.1v8.2c0,2.4-2,4.4-4.4,4.4h-3c-2.9,0-5.2-2.3-5.2-5.2v-7.3H109.9z"/>
<rect id="sensor" x="93.9" y="80.5" class="st13" width="19.8" height="5.9"/>
<line class="st14" x1="81.8" y1="85.7" x2="89.7" y2="85.6"/>
<line class="st14" x1="81.6" y1="92" x2="89.6" y2="91.9"/>
</svg>
