<?xml version="1.0" standalone="no"?>
<!DOCTYPE svg PUBLIC "-//W3C//DTD SVG 20010904//EN"
 "http://www.w3.org/TR/2001/REC-SVG-20010904/DTD/svg10.dtd">
<svg version="1.0" xmlns="http://www.w3.org/2000/svg"
 width="300.000000pt" height="550.000000pt" viewBox="0 0 300.000000 550.000000"
 preserveAspectRatio="xMidYMid meet">
<metadata>
Created by potrace 1.10, written by Peter Selinger 2001-2011
</metadata>
<g transform="translate(0.000000,550.000000) scale(0.100000,-0.100000)"
fill="#000000" stroke="none">
<path d="M1164 5450 c-83 -5 -167 -13 -185 -18 l-34 -8 -3 -532 -2 -532 -178
0 c-171 1 -178 1 -193 23 -8 12 -46 67 -84 122 -38 55 -81 118 -97 140 -15 22
-49 70 -74 108 -45 66 -46 67 -90 67 -42 0 -44 1 -44 29 0 17 4 33 10 36 5 3
10 15 10 26 0 10 5 19 10 19 7 0 7 6 1 18 -16 29 -25 56 -25 77 -1 15 -8 20
-31 20 -24 0 -30 -4 -30 -22 0 -13 -6 -28 -13 -35 -18 -18 -14 -72 8 -101 11
-14 20 -35 20 -46 0 -19 -6 -21 -60 -21 l-60 0 0 -45 0 -45 60 0 c57 0 60 -1
60 -24 0 -14 -5 -28 -11 -32 -6 -3 -9 -14 -6 -23 2 -10 -2 -26 -9 -36 -20 -27
-17 -68 6 -98 11 -14 20 -35 20 -46 0 -19 -6 -21 -60 -21 l-60 0 0 -45 0 -45
60 0 60 0 0 -40 c0 -33 3 -40 20 -40 17 0 20 7 20 40 0 36 3 40 25 40 14 0 29
-8 35 -19 5 -11 16 -26 24 -33 7 -8 21 -27 30 -43 9 -17 30 -48 47 -70 29 -40
55 -76 147 -210 l48 -70 202 -3 202 -2 0 -1878 c0 -1032 0 -1885 0 -1896 0
-13 5 -17 20 -13 11 3 20 1 20 -3 0 -12 172 -9 188 3 9 7 12 547 12 2636 l0
2626 345 0 345 0 0 -2620 c0 -1441 0 -2626 0 -2634 0 -8 7 -11 20 -8 11 3 20
1 20 -3 0 -12 172 -9 188 3 9 7 12 399 12 1898 l0 1889 188 0 188 0 50 68 c42
58 106 150 162 232 87 130 105 150 133 150 27 0 29 -3 29 -40 0 -29 4 -40 15
-40 8 0 18 -1 22 -2 4 -2 6 16 5 40 l-4 42 36 0 c36 0 36 0 36 45 0 45 0 45
-35 45 -40 0 -45 15 -19 55 12 18 14 37 10 67 -3 24 -6 51 -7 60 0 10 -4 20
-10 23 -5 4 -9 22 -9 41 0 32 2 34 35 34 35 0 35 0 35 45 0 45 0 45 -35 45
-40 0 -45 15 -19 55 16 24 16 49 -2 133 -5 27 -10 32 -36 32 -27 0 -30 -3 -26
-25 3 -14 0 -30 -7 -35 -16 -13 -14 -95 3 -112 7 -7 12 -20 12 -30 0 -15 -8
-18 -49 -18 -38 0 -52 -5 -65 -22 -18 -25 -77 -110 -161 -233 -30 -44 -68 -98
-85 -120 -16 -22 -34 -49 -40 -60 -10 -19 -21 -20 -180 -20 l-170 0 0 527 c0
290 -4 529 -9 532 -39 25 -661 42 -937 26z m796 -32 c63 -5 117 -11 119 -14 8
-8 8 -954 1 -949 -9 5 12 -85 23 -102 6 -10 53 -13 177 -13 l168 0 39 48 c22
26 86 116 144 201 135 199 145 211 201 213 122 4 146 -14 71 -54 -18 -9 -35
-13 -37 -9 -3 4 -21 5 -41 3 -45 -5 -40 1 -297 -374 l-53 -77 -185 -3 -185 -3
0 -150 0 -150 176 -3 177 -2 21 32 c11 18 31 47 43 65 20 28 68 95 132 188 12
17 23 32 26 35 3 3 11 14 18 25 70 111 64 105 112 105 25 0 51 5 56 10 8 8 15
6 24 -5 7 -8 21 -15 31 -15 11 0 19 -7 19 -15 0 -8 -6 -15 -14 -15 -7 0 -19
-7 -26 -15 -9 -11 -16 -13 -24 -5 -17 17 -90 12 -103 -7 -6 -10 -48 -70 -92
-133 -44 -63 -105 -152 -136 -197 -31 -46 -65 -87 -75 -93 -10 -5 -76 -10
-147 -9 -222 2 -221 2 -229 -23 -4 -13 -8 -864 -9 -1893 -1 -1029 -3 -1873 -4
-1876 -2 -11 -171 -10 -171 1 0 5 -6 9 -12 7 -10 -1 -13 527 -15 2613 -1 1438
-5 2620 -7 2627 -4 10 -78 13 -350 13 -193 0 -347 -4 -350 -9 -3 -5 -6 -1172
-7 -2592 0 -1421 -3 -2602 -7 -2624 l-7 -40 -60 -1 c-33 -1 -64 -3 -70 -5 -5
-2 -25 2 -44 9 -30 11 -33 14 -25 39 11 40 13 3692 1 3726 l-9 27 -193 0 -193
0 -22 28 c-49 63 -170 234 -205 288 -83 131 -124 162 -167 127 -10 -8 -18 -8
-31 2 -10 7 -34 11 -52 10 -29 -3 -35 0 -35 16 0 13 7 19 23 20 37 1 70 9 83
20 8 7 14 7 19 -1 3 -5 23 -10 45 -10 34 0 42 -5 74 -50 20 -28 36 -55 36 -60
0 -6 4 -10 8 -10 4 0 15 -13 25 -29 10 -16 53 -80 97 -141 44 -61 80 -113 80
-116 0 -3 8 -14 18 -25 18 -18 30 -19 203 -17 l184 3 0 150 0 150 -194 3
c-171 2 -196 5 -208 20 -11 14 -179 256 -226 326 -6 10 -28 38 -47 63 -33 43
-36 45 -77 40 -24 -2 -46 -1 -49 4 -3 5 -25 9 -50 9 -37 0 -44 3 -44 20 0 14
7 20 25 21 49 3 60 4 70 11 15 9 104 -9 119 -25 7 -7 25 -30 39 -52 15 -22 47
-69 72 -105 26 -36 76 -108 112 -160 37 -52 73 -101 82 -107 11 -9 66 -13 197
-13 181 0 183 0 190 23 4 12 7 250 6 530 0 279 3 509 8 512 4 2 56 8 116 11
60 4 111 8 113 10 8 7 656 1 761 -8z m-1780 -475 c0 -31 -10 -53 -25 -53 -26
0 -34 66 -13 100 12 19 13 19 25 -3 7 -12 12 -32 13 -44z m2719 19 c15 -37 5
-84 -18 -80 -18 3 -26 46 -17 84 8 32 21 30 35 -4z m-2620 -304 c59 -82 142
-202 214 -307 l48 -71 200 0 199 0 0 -145 0 -145 -179 0 -180 0 -46 68 c-25
37 -65 94 -89 127 -23 33 -68 98 -101 145 -81 119 -82 120 -127 120 -35 0 -38
2 -38 29 0 16 7 41 15 57 13 27 12 66 -5 89 -4 6 -8 31 -9 58 -2 44 0 47 22
47 18 0 36 -17 76 -72z m2578 20 c-2 -29 -10 -66 -16 -82 -13 -33 -7 -79 14
-96 7 -6 11 -20 8 -30 -4 -16 -14 -20 -52 -20 l-47 0 -84 -122 c-47 -67 -113
-163 -148 -213 -35 -49 -69 -98 -75 -107 -10 -16 -31 -18 -179 -18 l-168 0 0
145 0 145 185 0 185 0 57 78 c51 68 130 181 226 324 27 41 37 48 65 48 l33 0
-4 -52z m-2673 -98 c4 -26 -12 -70 -25 -70 -24 0 -40 92 -18 106 6 3 9 15 6
25 -3 11 -1 17 4 13 5 -3 9 1 10 8 1 14 17 -43 23 -82z m2713 15 c11 -47 3
-90 -17 -90 -25 0 -34 48 -19 99 15 51 22 49 36 -9z"/>
<path d="M1775 229 c-26 -6 -23 -7 18 -8 26 0 47 1 47 3 0 9 -37 12 -65 5z"/>
<path d="M1238 223 c-37 -9 -15 -18 49 -21 45 -1 72 -7 83 -18 14 -14 12 -15
-15 -9 -16 4 -43 11 -59 16 -16 5 -34 9 -40 9 -15 -1 25 -24 44 -25 8 -1 29
-5 47 -9 19 -4 34 -3 38 3 4 7 16 6 36 -4 50 -26 32 -9 -23 23 -51 28 -124 44
-160 35z"/>
<path d="M805 203 c-107 -18 -193 -50 -213 -81 -15 -24 -15 -26 15 -53 18 -15
49 -33 70 -39 48 -14 153 -28 148 -20 -2 4 -42 17 -89 30 -78 21 -126 47 -126
69 0 18 130 60 216 71 49 7 93 15 97 20 16 15 -39 16 -118 3z"/>
<path d="M1660 208 c0 -10 19 -9 45 2 16 7 14 8 -12 7 -18 -1 -33 -5 -33 -9z"/>
<path d="M2122 208 c3 -7 18 -14 34 -16 46 -5 145 -31 187 -49 73 -31 37 -66
-103 -98 -41 -9 -86 -21 -100 -25 -49 -16 68 -11 136 6 173 44 172 127 -3 167
-109 25 -156 30 -151 15z"/>
<path d="M1778 203 c6 -2 18 -2 25 0 6 3 1 5 -13 5 -14 0 -19 -2 -12 -5z"/>
<path d="M1520 155 c-19 -20 -26 -22 -43 -13 -16 8 -19 7 -15 -4 9 -23 -34
-64 -87 -81 -27 -9 -70 -24 -95 -32 l-45 -16 55 5 c99 9 180 46 180 82 0 8 8
14 18 14 10 0 23 5 29 11 9 9 11 7 7 -8 -12 -44 94 -91 221 -98 79 -5 67 1
-74 35 -83 20 -113 36 -133 74 -8 15 -6 23 13 37 18 14 20 19 8 19 -8 0 -26
-11 -39 -25z"/>
</g>
</svg>
